<svg width="24" height="24" viewBox="0 0 24 24" fill="none" xmlns="http://www.w3.org/2000/svg">
<path fill-rule="evenodd" clip-rule="evenodd" d="M3.14909 1.9084C3.04681 1.90069 2.90689 1.9001 2.65422 1.9001H0.999976C0.502919 1.9001 0.0999756 1.49716 0.0999756 1.0001C0.0999756 0.503045 0.502919 0.100101 0.999976 0.100101H2.65422C2.66304 0.100101 2.67185 0.1001 2.68065 0.100099C2.897 0.100077 3.10607 0.100056 3.28433 0.113488C3.48114 0.128317 3.70392 0.162769 3.9329 0.264908C4.2586 0.410196 4.53684 0.644223 4.73579 0.940219C4.87565 1.14831 4.94777 1.36189 4.9961 1.55325C5.03987 1.72658 5.07568 1.93256 5.11272 2.14571C5.11423 2.15438 5.11574 2.16306 5.11725 2.17175L5.36951 3.62223L18.462 4.00978C18.9747 4.02494 19.4119 4.03787 19.7707 4.0774C20.1483 4.11898 20.5145 4.19638 20.8635 4.38233C21.398 4.66705 21.8299 5.11193 22.0986 5.65456C22.2742 6.00895 22.3407 6.37727 22.3711 6.75588C22.4 7.11578 22.4 7.55315 22.4 8.06599V8.13377C22.4 8.61578 22.4 9.02827 22.3735 9.36922C22.3454 9.72897 22.2841 10.0788 22.1238 10.4194C21.8773 10.9432 21.4796 11.3811 20.9821 11.677C20.6585 11.8694 20.3162 11.9641 19.9608 12.0266C19.624 12.0859 19.2135 12.1256 18.7337 12.172L9.00572 13.1134C8.51395 13.161 8.09355 13.2017 7.74393 13.2079C7.37536 13.2144 7.01356 13.1855 6.65274 13.053C6.10602 12.8521 5.63245 12.4913 5.29369 12.0175C5.07012 11.7048 4.94625 11.3637 4.85466 11.0066C4.7678 10.6679 4.69544 10.2518 4.61081 9.76507L3.34387 2.48016C3.30058 2.23123 3.27602 2.09348 3.2509 1.99403C3.24314 1.9633 3.23714 1.94413 3.23349 1.93352C3.22714 1.9264 3.2198 1.92023 3.21169 1.91519C3.20061 1.91341 3.1807 1.91078 3.14909 1.9084ZM5.68431 5.43233L6.37839 9.42333C6.47043 9.95252 6.53115 10.2979 6.59823 10.5594C6.66256 10.8102 6.71616 10.9122 6.75792 10.9706C6.88641 11.1503 7.06605 11.2872 7.27342 11.3633C7.34082 11.3881 7.45336 11.4127 7.71227 11.4082C7.98222 11.4034 8.33129 11.3703 8.86593 11.3185L18.5273 10.3836C19.0491 10.3331 19.3893 10.2995 19.6489 10.2538C19.8975 10.2101 20.0013 10.166 20.0622 10.1298C20.2509 10.0176 20.4017 9.85145 20.4952 9.65279C20.5254 9.58879 20.5593 9.48117 20.5789 9.22948C20.5993 8.96677 20.6 8.62492 20.6 8.1006C20.6 7.54372 20.5993 7.17917 20.5769 6.89991C20.5553 6.6313 20.518 6.51868 20.4857 6.45352C20.3837 6.2477 20.2199 6.07895 20.0172 5.97095C19.953 5.93676 19.8415 5.89608 19.5737 5.86658C19.2952 5.83591 18.9308 5.82445 18.3742 5.80797L5.68431 5.43233Z" fill="#262F56"/>
<path fill-rule="evenodd" clip-rule="evenodd" d="M8.49998 17.9001C7.89246 17.9001 7.39998 18.3926 7.39998 19.0001C7.39998 19.6076 7.89246 20.1001 8.49998 20.1001C9.10749 20.1001 9.59998 19.6076 9.59998 19.0001C9.59998 18.3926 9.10749 17.9001 8.49998 17.9001ZM5.59998 19.0001C5.59998 17.3985 6.89835 16.1001 8.49998 16.1001C10.1016 16.1001 11.4 17.3985 11.4 19.0001C11.4 20.6017 10.1016 21.9001 8.49998 21.9001C6.89835 21.9001 5.59998 20.6017 5.59998 19.0001Z" fill="#262F56"/>
<path fill-rule="evenodd" clip-rule="evenodd" d="M18 17.9001C17.3925 17.9001 16.9 18.3926 16.9 19.0001C16.9 19.6076 17.3925 20.1001 18 20.1001C18.6075 20.1001 19.1 19.6076 19.1 19.0001C19.1 18.3926 18.6075 17.9001 18 17.9001ZM15.1 19.0001C15.1 17.3985 16.3983 16.1001 18 16.1001C19.6016 16.1001 20.9 17.3985 20.9 19.0001C20.9 20.6017 19.6016 21.9001 18 21.9001C16.3983 21.9001 15.1 20.6017 15.1 19.0001Z" fill="#262F56"/>
</svg>
