<svg width="16" height="16" viewBox="0 0 16 16" fill="none" xmlns="http://www.w3.org/2000/svg">
<path fill-rule="evenodd" clip-rule="evenodd" d="M6.75 2.23335C4.25551 2.23335 2.23333 4.25553 2.23333 6.75002C2.23333 9.2445 4.25551 11.2667 6.75 11.2667C7.99749 11.2667 9.12542 10.7621 9.94377 9.94378C10.7621 9.12544 11.2667 7.99751 11.2667 6.75002C11.2667 4.25553 9.24449 2.23335 6.75 2.23335ZM0.433334 6.75002C0.433334 3.26142 3.2614 0.43335 6.75 0.43335C10.2386 0.43335 13.0667 3.26142 13.0667 6.75002C13.0667 8.16934 12.5978 9.48028 11.8076 10.5348L15.3031 14.0303C15.6545 14.3818 15.6545 14.9516 15.3031 15.3031C14.9516 15.6545 14.3817 15.6545 14.0303 15.3031L10.5348 11.8076C9.48027 12.5978 8.16933 13.0667 6.75 13.0667C3.2614 13.0667 0.433334 10.2386 0.433334 6.75002Z" fill="#333333"/>
</svg>
